# xmcd
#
# Track frame offsets: 
#        150
#        7706
#        19208
#        35081
#        49003
#        63591
#        78488
#        88734
#        102424
#        118046
#
# Disc length: 1784 seconds
#
# Revision: 0
# Processed by: cddbd v1.5.2PL0 Copyright (c) Steve Scherf et al.
# Submitted via: ExactAudioCopy v1.3
#
DISCID=7b06f60a
DTITLE=Nico Brina - Boogie Woogie Journeyman
DYEAR=2015
DGENRE=Boogie Woogie, Piano Blues
TTITLE0=A Quick Boogie
TTITLE1=Catch Me, Boogie Baby
TTITLE2=Smooth Hips
TTITLE3=Bouncy Boogie
TTITLE4=Boogie Down To New Orleans
TTITLE5=The Sunny Side Of Blues
TTITLE6=Country House Boogie
TTITLE7=Cool Down Boogie
TTITLE8=White Dressed Woman Blues
TTITLE9=Soulman Boogie
EXTD=
EXTT0=
EXTT1=
EXTT2=
EXTT3=
EXTT4=
EXTT5=
EXTT6=
EXTT7=
EXTT8=
EXTT9=
PLAYORDER=
